<svg width="800" height="567" viewBox="0 0 800 567" fill="none" xmlns="http://www.w3.org/2000/svg">
<rect x="157" y="94" width="474" height="376" fill="white"/>
<path d="M633.85 0H166.15C74.3877 0 0 74.3877 0 166.15V399.95C0 491.713 74.3877 566.1 166.15 566.1H633.85C725.612 566.1 800 491.713 800 399.95V166.15C800 74.3877 725.612 0 633.85 0ZM521.484 294.425L302.726 398.76C296.897 401.54 290.163 397.29 290.163 390.833V175.642C290.163 169.093 297.074 164.848 302.915 167.809L521.673 278.665C528.178 281.96 528.065 291.288 521.484 294.425Z" fill="#F61C0D"/>
</svg>
